     <svg width="28" height="28" viewBox="0 0 500 500" fill="none" xmlns="http://www.w3.org/2000/svg">
                <g clip-path="url(#clip0_5_60)">
                  <g clip-path="url(#clip1_5_60)">
                    <g filter="url(#filter0_d_5_60)">
                      <path
                        d="M63.3011 50.5307C64.2755 29.9754 74.1171 18.7122 92.4387 18.656L407.23 17.6901C409.877 17.6819 413.333 19.8385 413.598 22.5196L448.574 376.289L434.456 376.897L441.21 446.084C441.865 452.792 439.263 458.528 429.709 458.573L100.064 460.134C72.8804 460.263 44.941 437.821 46.2515 410.178L63.3011 50.5307Z"
                        fill="#888A85"
                      />
                      <path
                        d="M63.3011 50.5307C64.2755 29.9754 74.1171 18.7122 92.4387 18.656L407.23 17.6901C409.877 17.6819 413.333 19.8385 413.598 22.5196L448.574 376.289L434.456 376.897L441.21 446.084C441.865 452.792 439.263 458.528 429.709 458.573L100.064 460.134C72.8804 460.263 44.941 437.821 46.2515 410.178L63.3011 50.5307Z"
                        stroke="#CCCCCC"
                        stroke-width="10.7339"
                        stroke-linecap="round"
                        stroke-linejoin="round"
                      />
                    </g>
                    <path
                      d="M425.684 365.639L112.389 366.98C95.6815 368.89 82.2 381.966 82.2 399.182C82.2 416.398 95.6815 429.475 112.389 431.384L425.684 432.725V432.055C407.913 431.216 393.482 417.16 393.482 399.182C393.482 381.204 407.913 367.149 425.684 366.31V365.639Z"
                      fill="url(#paint0_linear_5_60)"
                    />
                    <path
                      d="M98.9717 21.4839C80.6498 21.4839 70.6622 32.3145 69.789 52.1975L52.011 397.312C51.0239 430.355 71.6204 449.143 92.9339 454.529C47.3149 437.025 53.3527 358.012 110.376 358.342H442.035L406.479 26.1075C406.202 23.5237 402.744 21.4839 400.105 21.4839H98.9717Z"
                      fill="url(#paint1_linear_5_60)"
                    />
                    <path
                      opacity="0.480447"
                      d="M119.999 33.8654H98.5311L87.1461 351.435H108.614L119.999 33.8654Z"
                      fill="url(#paint2_linear_5_60)"
                      fill-opacity="0.4"
                    />
                    <path
                      d="M100.985 27.0782C82.9106 27.0782 75.9037 34.9372 75.0422 54.4941L61.1 375.323C71.1182 358.076 87.2863 351.893 113.185 351.893H434.68L404.347 31.626C404.106 29.0814 400.663 27.0782 398.06 27.0782H100.985Z"
                      stroke="url(#paint3_linear_5_60)"
                      stroke-width="10.7339"
                      stroke-miterlimit="20"
                      stroke-linecap="round"
                    />
                  </g>
                </g>
                <defs>
                  <filter
                    id="filter0_d_5_60"
                    x="36.8399"
                    y="12.3231"
                    width="421.101"
                    height="461.179"
                    filterUnits="userSpaceOnUse"
                    color-interpolation-filters="sRGB"
                  >
                    <feFlood flood-opacity="0" result="BackgroundImageFix" />
                    <feColorMatrix
                      in="SourceAlpha"
                      type="matrix"
                      values="0 0 0 0 0 0 0 0 0 0 0 0 0 0 0 0 0 0 127 0"
                      result="hardAlpha"
                    />
                    <feOffset dy="4" />
                    <feGaussianBlur stdDeviation="2" />
                    <feComposite in2="hardAlpha" operator="out" />
                    <feColorMatrix type="matrix" values="0 0 0 0 0 0 0 0 0 0 0 0 0 0 0 0 0 0 0.25 0" />
                    <feBlend mode="normal" in2="BackgroundImageFix" result="effect1_dropShadow_5_60" />
                    <feBlend mode="normal" in="SourceGraphic" in2="effect1_dropShadow_5_60" result="shape" />
                  </filter>
                  <linearGradient
                    id="paint0_linear_5_60"
                    x1="260.651"
                    y1="424.675"
                    x2="260.395"
                    y2="381.701"
                    gradientUnits="userSpaceOnUse"
                  >
                    <stop stop-color="white" />
                    <stop offset="1" stop-color="#BABDB6" />
                  </linearGradient>
                  <linearGradient
                    id="paint1_linear_5_60"
                    x1="73.4398"
                    y1="229.378"
                    x2="154.904"
                    y2="229.378"
                    gradientUnits="userSpaceOnUse"
                  >
                    <stop stop-color="#CF7272" />
                    <stop offset="1" stop-color="#E14646" />
                  </linearGradient>
                  <linearGradient
                    id="paint2_linear_5_60"
                    x1="92.8383"
                    y1="192.65"
                    x2="108.593"
                    y2="193.215"
                    gradientUnits="userSpaceOnUse"
                  >
                    <stop stop-opacity="0.0686275" />
                    <stop offset="1" stop-color="white" />
                  </linearGradient>
                  <linearGradient
                    id="paint3_linear_5_60"
                    x1="802.469"
                    y1="256.502"
                    x2="-34.7589"
                    y2="193.096"
                    gradientUnits="userSpaceOnUse"
                  >
                    <stop stop-color="#FF2E2E" />
                    <stop offset="1" stop-color="white" stop-opacity="0" />
                  </linearGradient>
                  <clipPath id="clip0_5_60">
                    <rect width="500" height="500" fill="white" />
                  </clipPath>
                  <clipPath id="clip1_5_60">
                    <rect width="448" height="524" fill="white" transform="translate(26)" />
                  </clipPath>
                </defs>
              </svg>
