<svg width="500" height="500" viewBox="0 0 500 500" fill="none" xmlns="http://www.w3.org/2000/svg">
<g clip-path="url(#clip0_2_43)">
<rect width="500" height="500" fill="#FFD0D0"/>
<g clip-path="url(#clip1_2_43)">
<g filter="url(#filter0_d_2_43)">
<path d="M63.3011 50.5307C64.2755 29.9754 74.117 18.7122 92.4387 18.656L407.23 17.6901C409.877 17.6819 413.333 19.8385 413.598 22.5196L448.574 376.289L434.455 376.897L441.21 446.084C441.865 452.792 439.263 458.528 429.709 458.573L100.064 460.134C72.8804 460.263 44.941 437.821 46.2515 410.178L63.3011 50.5307Z" fill="#888A85"/>
<path d="M63.3011 50.5307C64.2755 29.9754 74.117 18.7122 92.4387 18.656L407.23 17.6901C409.877 17.6819 413.333 19.8385 413.598 22.5196L448.574 376.289L434.455 376.897L441.21 446.084C441.865 452.792 439.263 458.528 429.709 458.573L100.064 460.134C72.8804 460.263 44.941 437.821 46.2515 410.178L63.3011 50.5307Z" stroke="#CCCCCC" stroke-width="10.7339" stroke-linecap="round" stroke-linejoin="round"/>
</g>
<path d="M425.684 365.639L112.389 366.98C95.6815 368.89 82.2 381.966 82.2 399.182C82.2 416.398 95.6815 429.475 112.389 431.384L425.684 432.725V432.055C407.913 431.216 393.482 417.16 393.482 399.182C393.482 381.204 407.913 367.149 425.684 366.31V365.639Z" fill="url(#paint0_linear_2_43)"/>
<path d="M98.9716 21.4839C80.6498 21.4839 70.6621 32.3145 69.7889 52.1975L52.0109 397.312C51.0239 430.355 71.6203 449.143 92.9338 454.529C47.3149 437.025 53.3527 358.012 110.376 358.342H442.035L406.479 26.1075C406.202 23.5237 402.744 21.4839 400.105 21.4839H98.9716Z" fill="url(#paint1_linear_2_43)"/>
<path opacity="0.480447" d="M119.999 33.8654H98.531L87.146 351.435H108.614L119.999 33.8654Z" fill="url(#paint2_linear_2_43)" fill-opacity="0.4"/>
<path d="M100.985 27.0782C82.9106 27.0782 75.9037 34.9372 75.0422 54.4941L61.0999 375.323C71.1182 358.076 87.2862 351.893 113.185 351.893H434.68L404.347 31.626C404.106 29.0814 400.663 27.0782 398.06 27.0782H100.985Z" stroke="url(#paint3_linear_2_43)" stroke-width="10.7339" stroke-miterlimit="20" stroke-linecap="round"/>
<path d="M153.751 172V113.818H175.058C179.187 113.818 182.606 114.5 185.314 115.864C188.022 117.208 190.049 119.036 191.393 121.347C192.738 123.638 193.411 126.223 193.411 129.102C193.411 131.527 192.965 133.572 192.075 135.239C191.185 136.886 189.992 138.212 188.496 139.216C187.018 140.201 185.39 140.92 183.609 141.375V141.943C185.541 142.038 187.426 142.663 189.263 143.818C191.119 144.955 192.653 146.574 193.865 148.676C195.077 150.778 195.683 153.335 195.683 156.347C195.683 159.32 194.982 161.991 193.581 164.358C192.198 166.706 190.058 168.572 187.161 169.955C184.263 171.318 180.56 172 176.053 172H153.751ZM162.53 164.472H175.2C179.405 164.472 182.416 163.657 184.234 162.028C186.053 160.4 186.962 158.364 186.962 155.92C186.962 154.083 186.498 152.398 185.57 150.864C184.642 149.33 183.316 148.108 181.592 147.199C179.888 146.29 177.861 145.835 175.513 145.835H162.53V164.472ZM162.53 138.989H174.291C176.261 138.989 178.032 138.61 179.604 137.852C181.195 137.095 182.454 136.034 183.382 134.67C184.329 133.288 184.803 131.659 184.803 129.784C184.803 127.379 183.96 125.362 182.274 123.733C180.589 122.104 178.003 121.29 174.518 121.29H162.53V138.989ZM223.794 172.881C219.703 172.881 216.133 171.943 213.084 170.068C210.035 168.193 207.667 165.57 205.982 162.199C204.296 158.828 203.453 154.888 203.453 150.381C203.453 145.854 204.296 141.896 205.982 138.506C207.667 135.116 210.035 132.483 213.084 130.608C216.133 128.733 219.703 127.795 223.794 127.795C227.885 127.795 231.455 128.733 234.504 130.608C237.554 132.483 239.921 135.116 241.607 138.506C243.292 141.896 244.135 145.854 244.135 150.381C244.135 154.888 243.292 158.828 241.607 162.199C239.921 165.57 237.554 168.193 234.504 170.068C231.455 171.943 227.885 172.881 223.794 172.881ZM223.822 165.75C226.474 165.75 228.671 165.049 230.413 163.648C232.156 162.246 233.444 160.381 234.277 158.051C235.129 155.722 235.555 153.155 235.555 150.352C235.555 147.568 235.129 145.011 234.277 142.682C233.444 140.333 232.156 138.449 230.413 137.028C228.671 135.608 226.474 134.898 223.822 134.898C221.152 134.898 218.936 135.608 217.175 137.028C215.432 138.449 214.135 140.333 213.283 142.682C212.449 145.011 212.033 147.568 212.033 150.352C212.033 153.155 212.449 155.722 213.283 158.051C214.135 160.381 215.432 162.246 217.175 163.648C218.936 165.049 221.152 165.75 223.822 165.75ZM271.997 172.881C267.906 172.881 264.336 171.943 261.287 170.068C258.238 168.193 255.87 165.57 254.185 162.199C252.499 158.828 251.656 154.888 251.656 150.381C251.656 145.854 252.499 141.896 254.185 138.506C255.87 135.116 258.238 132.483 261.287 130.608C264.336 128.733 267.906 127.795 271.997 127.795C276.088 127.795 279.658 128.733 282.707 130.608C285.757 132.483 288.124 135.116 289.81 138.506C291.495 141.896 292.338 145.854 292.338 150.381C292.338 154.888 291.495 158.828 289.81 162.199C288.124 165.57 285.757 168.193 282.707 170.068C279.658 171.943 276.088 172.881 271.997 172.881ZM272.026 165.75C274.677 165.75 276.874 165.049 278.616 163.648C280.359 162.246 281.647 160.381 282.48 158.051C283.332 155.722 283.759 153.155 283.759 150.352C283.759 147.568 283.332 145.011 282.48 142.682C281.647 140.333 280.359 138.449 278.616 137.028C276.874 135.608 274.677 134.898 272.026 134.898C269.355 134.898 267.139 135.608 265.378 137.028C263.635 138.449 262.338 140.333 261.486 142.682C260.652 145.011 260.236 147.568 260.236 150.352C260.236 153.155 260.652 155.722 261.486 158.051C262.338 160.381 263.635 162.246 265.378 163.648C267.139 165.049 269.355 165.75 272.026 165.75ZM309.632 157.199L309.575 146.83H311.053L328.439 128.364H338.609L318.78 149.386H317.445L309.632 157.199ZM301.82 172V113.818H310.314V172H301.82ZM329.376 172L313.751 151.261L319.604 145.324L339.803 172H329.376Z" fill="white" fill-opacity="0.8"/>
<path d="M153.751 172H149.751V176H153.751V172ZM153.751 113.818V109.818H149.751V113.818H153.751ZM185.314 115.864L183.515 119.436L183.525 119.441L183.535 119.446L185.314 115.864ZM191.393 121.347L187.936 123.359L187.94 123.365L187.944 123.371L191.393 121.347ZM192.075 135.239L195.595 137.14L195.599 137.131L195.604 137.123L192.075 135.239ZM188.496 139.216L190.715 142.544L190.724 142.538L188.496 139.216ZM183.609 141.375L182.62 137.499L179.609 138.268V141.375H183.609ZM183.609 141.943H179.609V145.752L183.414 145.938L183.609 141.943ZM189.263 143.818L187.133 147.204L187.154 147.217L187.174 147.23L189.263 143.818ZM193.865 148.676L197.33 146.678L197.33 146.678L193.865 148.676ZM193.581 164.358L190.139 162.32L190.134 162.329L193.581 164.358ZM187.161 169.955L188.864 173.574L188.873 173.569L188.883 173.565L187.161 169.955ZM162.53 164.472H158.53V168.472H162.53V164.472ZM184.234 162.028L181.565 159.049L181.565 159.049L184.234 162.028ZM185.57 150.864L182.147 152.934L182.147 152.934L185.57 150.864ZM181.592 147.199L179.71 150.728L179.718 150.733L179.726 150.737L181.592 147.199ZM162.53 145.835V141.835H158.53V145.835H162.53ZM162.53 138.989H158.53V142.989H162.53V138.989ZM179.604 137.852L177.884 134.241L177.876 134.245L177.867 134.249L179.604 137.852ZM183.382 134.67L180.082 132.41L180.075 132.42L183.382 134.67ZM182.274 123.733L179.495 126.609L179.495 126.609L182.274 123.733ZM162.53 121.29V117.29H158.53V121.29H162.53ZM157.751 172V113.818H149.751V172H157.751ZM153.751 117.818H175.058V109.818H153.751V117.818ZM175.058 117.818C178.777 117.818 181.529 118.436 183.515 119.436L187.113 112.291C183.682 110.564 179.597 109.818 175.058 109.818V117.818ZM183.535 119.446C185.637 120.49 187.035 121.811 187.936 123.359L194.851 119.335C193.062 116.261 190.407 113.927 187.093 112.281L183.535 119.446ZM187.944 123.371C188.898 124.998 189.411 126.874 189.411 129.102H197.411C197.411 125.573 196.578 122.279 194.843 119.322L187.944 123.371ZM189.411 129.102C189.411 131.05 189.052 132.408 188.547 133.354L195.604 137.123C196.879 134.735 197.411 132.003 197.411 129.102H189.411ZM188.556 133.337C187.962 134.437 187.203 135.267 186.267 135.894L190.724 142.538C192.781 141.158 194.408 139.335 195.595 137.14L188.556 133.337ZM186.277 135.888C185.189 136.613 183.978 137.153 182.62 137.499L184.599 145.251C186.801 144.688 188.848 143.788 190.715 142.544L186.277 135.888ZM179.609 141.375V141.943H187.609V141.375H179.609ZM183.414 145.938C184.579 145.995 185.805 146.369 187.133 147.204L191.392 140.432C189.046 138.957 186.504 138.08 183.805 137.948L183.414 145.938ZM187.174 147.23C188.397 147.978 189.482 149.083 190.4 150.674L197.33 146.678C195.824 144.065 193.84 141.931 191.351 140.407L187.174 147.23ZM190.4 150.674C191.187 152.039 191.683 153.869 191.683 156.347H199.683C199.683 152.801 198.968 149.518 197.33 146.678L190.4 150.674ZM191.683 156.347C191.683 158.663 191.146 160.619 190.139 162.32L197.023 166.396C198.819 163.362 199.683 159.977 199.683 156.347H191.683ZM190.134 162.329C189.224 163.875 187.747 165.243 185.438 166.344L188.883 173.565C192.369 171.901 195.173 169.538 197.028 166.387L190.134 162.329ZM185.457 166.335C183.264 167.368 180.195 168 176.053 168V176C180.925 176 185.262 175.269 188.864 173.574L185.457 166.335ZM176.053 168H153.751V176H176.053V168ZM162.53 168.472H175.2V160.472H162.53V168.472ZM175.2 168.472C179.737 168.472 183.979 167.628 186.903 165.008L181.565 159.049C180.853 159.687 179.073 160.472 175.2 160.472V168.472ZM186.903 165.008C189.569 162.619 190.962 159.5 190.962 155.92H182.962C182.962 157.228 182.536 158.18 181.565 159.049L186.903 165.008ZM190.962 155.92C190.962 153.372 190.308 150.968 188.992 148.793L182.147 152.934C182.688 153.828 182.962 154.794 182.962 155.92H190.962ZM188.992 148.793C187.656 146.584 185.767 144.878 183.459 143.661L179.726 150.737C180.865 151.338 181.627 152.075 182.147 152.934L188.992 148.793ZM183.475 143.669C181.079 142.392 178.378 141.835 175.513 141.835V149.835C177.345 149.835 178.697 150.188 179.71 150.728L183.475 143.669ZM175.513 141.835H162.53V149.835H175.513V141.835ZM158.53 145.835V164.472H166.53V145.835H158.53ZM162.53 142.989H174.291V134.989H162.53V142.989ZM174.291 142.989C176.784 142.989 179.161 142.506 181.34 141.456L177.867 134.249C176.903 134.714 175.737 134.989 174.291 134.989V142.989ZM181.323 141.464C183.509 140.423 185.335 138.911 186.689 136.921L180.075 132.42C179.574 133.157 178.88 133.767 177.884 134.241L181.323 141.464ZM186.682 136.931C188.138 134.805 188.803 132.366 188.803 129.784H180.803C180.803 130.952 180.52 131.771 180.082 132.41L186.682 136.931ZM188.803 129.784C188.803 126.326 187.542 123.261 185.054 120.856L179.495 126.609C180.378 127.463 180.803 128.431 180.803 129.784H188.803ZM185.054 120.856C182.328 118.223 178.542 117.29 174.518 117.29V125.29C177.464 125.29 178.849 125.986 179.495 126.609L185.054 120.856ZM174.518 117.29H162.53V125.29H174.518V117.29ZM158.53 121.29V138.989H166.53V121.29H158.53ZM205.982 162.199L209.559 160.41L209.559 160.41L205.982 162.199ZM213.084 130.608L215.179 134.015L215.179 134.015L213.084 130.608ZM234.504 130.608L232.409 134.015L232.409 134.015L234.504 130.608ZM241.607 162.199L238.029 160.41L238.029 160.41L241.607 162.199ZM234.504 170.068L236.599 173.476L236.599 173.476L234.504 170.068ZM230.413 163.648L227.906 160.531L227.906 160.531L230.413 163.648ZM234.277 158.051L230.52 156.677L230.516 156.69L230.511 156.704L234.277 158.051ZM234.277 142.682L230.507 144.019L230.514 144.038L230.52 144.056L234.277 142.682ZM230.413 137.028L227.886 140.129L227.886 140.129L230.413 137.028ZM217.175 137.028L214.664 133.915L214.655 133.921L214.647 133.928L217.175 137.028ZM213.283 142.682L209.523 141.317L209.519 141.326L209.516 141.335L213.283 142.682ZM213.283 158.051L209.516 159.398L209.521 159.412L209.526 159.425L213.283 158.051ZM217.175 163.648L214.668 166.765L214.676 166.771L214.684 166.778L217.175 163.648ZM223.794 168.881C220.335 168.881 217.512 168.095 215.179 166.661L210.989 173.476C214.754 175.791 219.071 176.881 223.794 176.881V168.881ZM215.179 166.661C212.799 165.198 210.93 163.151 209.559 160.41L202.404 163.988C204.405 167.989 207.27 171.189 210.989 173.476L215.179 166.661ZM209.559 160.41C208.201 157.693 207.453 154.388 207.453 150.381H199.453C199.453 155.389 200.391 159.962 202.404 163.988L209.559 160.41ZM207.453 150.381C207.453 146.352 208.201 143.025 209.563 140.287L202.4 136.725C200.39 140.766 199.453 145.356 199.453 150.381H207.453ZM209.563 140.287C210.936 137.527 212.805 135.475 215.179 134.015L210.989 127.201C207.264 129.491 204.399 132.704 202.4 136.725L209.563 140.287ZM215.179 134.015C217.512 132.581 220.335 131.795 223.794 131.795V123.795C219.071 123.795 214.754 124.885 210.989 127.201L215.179 134.015ZM223.794 131.795C227.253 131.795 230.076 132.581 232.409 134.015L236.599 127.201C232.834 124.885 228.517 123.795 223.794 123.795V131.795ZM232.409 134.015C234.783 135.475 236.653 137.527 238.025 140.287L245.188 136.725C243.189 132.704 240.324 129.491 236.599 127.201L232.409 134.015ZM238.025 140.287C239.387 143.025 240.135 146.352 240.135 150.381H248.135C248.135 145.356 247.198 140.766 245.188 136.725L238.025 140.287ZM240.135 150.381C240.135 154.388 239.387 157.693 238.029 160.41L245.184 163.988C247.197 159.962 248.135 155.389 248.135 150.381H240.135ZM238.029 160.41C236.658 163.151 234.789 165.198 232.409 166.661L236.599 173.476C240.318 171.189 243.184 167.989 245.184 163.988L238.029 160.41ZM232.409 166.661C230.076 168.095 227.253 168.881 223.794 168.881V176.881C228.517 176.881 232.834 175.791 236.599 173.476L232.409 166.661ZM223.822 169.75C227.209 169.75 230.341 168.839 232.92 166.765L227.906 160.531C227.001 161.259 225.738 161.75 223.822 161.75V169.75ZM232.92 166.765C235.298 164.852 236.989 162.346 238.043 159.398L230.511 156.704C229.899 158.415 229.014 159.64 227.906 160.531L232.92 166.765ZM238.033 159.425C239.066 156.602 239.555 153.564 239.555 150.352H231.555C231.555 152.747 231.192 154.841 230.52 156.677L238.033 159.425ZM239.555 150.352C239.555 147.156 239.065 144.128 238.033 141.307L230.52 144.056C231.193 145.895 231.555 147.98 231.555 150.352H239.555ZM238.047 141.344C236.996 138.383 235.311 135.86 232.941 133.928L227.886 140.129C229 141.037 229.891 142.284 230.507 144.019L238.047 141.344ZM232.941 133.928C230.361 131.825 227.222 130.898 223.822 130.898V138.898C225.726 138.898 226.981 139.391 227.886 140.129L232.941 133.928ZM223.822 130.898C220.41 130.898 217.259 131.821 214.664 133.915L219.686 140.142C220.613 139.394 221.894 138.898 223.822 138.898V130.898ZM214.647 133.928C212.284 135.855 210.593 138.367 209.523 141.317L217.043 144.046C217.677 142.299 218.581 141.043 219.702 140.129L214.647 133.928ZM209.516 141.335C208.51 144.147 208.033 147.166 208.033 150.352H216.033C216.033 147.97 216.388 145.876 217.049 144.029L209.516 141.335ZM208.033 150.352C208.033 153.554 208.509 156.583 209.516 159.398L217.049 156.704C216.389 154.86 216.033 152.756 216.033 150.352H208.033ZM209.526 159.425C210.6 162.362 212.297 164.858 214.668 166.765L219.682 160.531C218.567 159.634 217.669 158.4 217.039 156.677L209.526 159.425ZM214.684 166.778C217.279 168.843 220.423 169.75 223.822 169.75V161.75C221.881 161.75 220.593 161.256 219.665 160.518L214.684 166.778ZM254.185 162.199L257.762 160.41L257.762 160.41L254.185 162.199ZM261.287 130.608L263.382 134.015L263.382 134.015L261.287 130.608ZM282.707 130.608L280.612 134.015L280.612 134.015L282.707 130.608ZM289.81 162.199L286.232 160.41L286.232 160.41L289.81 162.199ZM282.707 170.068L284.803 173.476L284.803 173.476L282.707 170.068ZM278.616 163.648L276.109 160.531L276.109 160.531L278.616 163.648ZM282.48 158.051L278.724 156.677L278.719 156.69L278.714 156.704L282.48 158.051ZM282.48 142.682L278.71 144.019L278.717 144.038L278.724 144.056L282.48 142.682ZM278.616 137.028L276.089 140.129L276.089 140.129L278.616 137.028ZM265.378 137.028L262.867 133.915L262.859 133.921L262.85 133.928L265.378 137.028ZM261.486 142.682L257.726 141.317L257.723 141.326L257.72 141.335L261.486 142.682ZM261.486 158.051L257.72 159.398L257.724 159.412L257.729 159.425L261.486 158.051ZM265.378 163.648L262.871 166.765L262.879 166.771L262.887 166.778L265.378 163.648ZM271.997 168.881C268.538 168.881 265.715 168.095 263.382 166.661L259.192 173.476C262.957 175.791 267.274 176.881 271.997 176.881V168.881ZM263.382 166.661C261.003 165.198 259.133 163.151 257.762 160.41L250.607 163.988C252.608 167.989 255.473 171.189 259.192 173.476L263.382 166.661ZM257.762 160.41C256.404 157.693 255.656 154.388 255.656 150.381H247.656C247.656 155.389 248.594 159.962 250.607 163.988L257.762 160.41ZM255.656 150.381C255.656 146.352 256.405 143.025 257.766 140.287L250.603 136.725C248.593 140.766 247.656 145.356 247.656 150.381H255.656ZM257.766 140.287C259.139 137.527 261.008 135.475 263.382 134.015L259.192 127.201C255.467 129.491 252.602 132.704 250.603 136.725L257.766 140.287ZM263.382 134.015C265.715 132.581 268.538 131.795 271.997 131.795V123.795C267.274 123.795 262.957 124.885 259.192 127.201L263.382 134.015ZM271.997 131.795C275.456 131.795 278.279 132.581 280.612 134.015L284.803 127.201C281.037 124.885 276.72 123.795 271.997 123.795V131.795ZM280.612 134.015C282.986 135.475 284.856 137.527 286.228 140.287L293.391 136.725C291.392 132.704 288.527 129.491 284.803 127.201L280.612 134.015ZM286.228 140.287C287.59 143.025 288.338 146.352 288.338 150.381H296.338C296.338 145.356 295.401 140.766 293.391 136.725L286.228 140.287ZM288.338 150.381C288.338 154.388 287.591 157.693 286.232 160.41L293.387 163.988C295.4 159.962 296.338 155.389 296.338 150.381H288.338ZM286.232 160.41C284.861 163.151 282.992 165.198 280.612 166.661L284.803 173.476C288.522 171.189 291.387 167.989 293.387 163.988L286.232 160.41ZM280.612 166.661C278.279 168.095 275.456 168.881 271.997 168.881V176.881C276.72 176.881 281.037 175.791 284.803 173.476L280.612 166.661ZM272.026 169.75C275.413 169.75 278.544 168.839 281.124 166.765L276.109 160.531C275.204 161.259 273.942 161.75 272.026 161.75V169.75ZM281.124 166.765C283.501 164.852 285.192 162.346 286.246 159.398L278.714 156.704C278.102 158.415 277.217 159.64 276.109 160.531L281.124 166.765ZM286.237 159.425C287.269 156.602 287.759 153.564 287.759 150.352H279.759C279.759 152.747 279.395 154.841 278.724 156.677L286.237 159.425ZM287.759 150.352C287.759 147.156 287.268 144.128 286.237 141.307L278.724 144.056C279.396 145.895 279.759 147.98 279.759 150.352H287.759ZM286.25 141.344C285.199 138.383 283.514 135.86 281.144 133.928L276.089 140.129C277.204 141.037 278.095 142.284 278.71 144.019L286.25 141.344ZM281.144 133.928C278.564 131.825 275.425 130.898 272.026 130.898V138.898C273.929 138.898 275.184 139.391 276.089 140.129L281.144 133.928ZM272.026 130.898C268.613 130.898 265.462 131.821 262.867 133.915L267.889 140.142C268.816 139.394 270.097 138.898 272.026 138.898V130.898ZM262.85 133.928C260.487 135.855 258.796 138.367 257.726 141.317L265.246 144.046C265.88 142.299 266.784 141.043 267.905 140.129L262.85 133.928ZM257.72 141.335C256.713 144.147 256.236 147.166 256.236 150.352H264.236C264.236 147.97 264.591 145.876 265.252 144.029L257.72 141.335ZM256.236 150.352C256.236 153.554 256.712 156.583 257.72 159.398L265.252 156.704C264.592 154.86 264.236 152.756 264.236 150.352H256.236ZM257.729 159.425C258.804 162.362 260.501 164.858 262.871 166.765L267.885 160.531C266.77 159.634 265.873 158.4 265.242 156.677L257.729 159.425ZM262.887 166.778C265.483 168.843 268.626 169.75 272.026 169.75V161.75C270.084 161.75 268.796 161.256 267.868 160.518L262.887 166.778ZM309.632 157.199L305.632 157.221L305.685 166.803L312.461 160.027L309.632 157.199ZM309.575 146.83V142.83H305.553L305.575 146.851L309.575 146.83ZM311.053 146.83V150.83H312.78L313.965 149.572L311.053 146.83ZM328.439 128.364V124.364H326.711L325.527 125.622L328.439 128.364ZM338.609 128.364L341.519 131.108L347.881 124.364H338.609V128.364ZM318.78 149.386V153.386H320.506L321.69 152.131L318.78 149.386ZM317.445 149.386V145.386H315.788L314.616 146.558L317.445 149.386ZM301.82 172H297.82V176H301.82V172ZM301.82 113.818V109.818H297.82V113.818H301.82ZM310.314 113.818H314.314V109.818H310.314V113.818ZM310.314 172V176H314.314V172H310.314ZM329.376 172L326.182 174.407L327.382 176H329.376V172ZM313.751 151.261L310.903 148.453L308.48 150.912L310.557 153.668L313.751 151.261ZM319.604 145.324L322.793 142.909L320.001 139.222L316.755 142.516L319.604 145.324ZM339.803 172V176H347.849L342.992 169.585L339.803 172ZM313.632 157.177L313.575 146.808L305.575 146.851L305.632 157.221L313.632 157.177ZM309.575 150.83H311.053V142.83H309.575V150.83ZM313.965 149.572L331.351 131.106L325.527 125.622L308.14 144.088L313.965 149.572ZM328.439 132.364H338.609V124.364H328.439V132.364ZM335.7 125.619L315.87 146.642L321.69 152.131L341.519 131.108L335.7 125.619ZM318.78 145.386H317.445V153.386H318.78V145.386ZM314.616 146.558L306.804 154.37L312.461 160.027L320.273 152.215L314.616 146.558ZM305.82 172V113.818H297.82V172H305.82ZM301.82 117.818H310.314V109.818H301.82V117.818ZM306.314 113.818V172H314.314V113.818H306.314ZM310.314 168H301.82V176H310.314V168ZM332.571 169.593L316.946 148.854L310.557 153.668L326.182 174.407L332.571 169.593ZM316.6 154.069L322.452 148.132L316.755 142.516L310.903 148.453L316.6 154.069ZM316.415 147.739L336.614 174.415L342.992 169.585L322.793 142.909L316.415 147.739ZM339.803 168H329.376V176H339.803V168Z" fill="black" fill-opacity="0.2"/>
<path d="M151.781 211.375V203.818H196.809V211.375H178.656V262H169.906V211.375H151.781ZM218.13 262.881C214.039 262.881 210.469 261.943 207.42 260.068C204.371 258.193 202.003 255.57 200.317 252.199C198.632 248.828 197.789 244.888 197.789 240.381C197.789 235.854 198.632 231.896 200.317 228.506C202.003 225.116 204.371 222.483 207.42 220.608C210.469 218.733 214.039 217.795 218.13 217.795C222.221 217.795 225.791 218.733 228.84 220.608C231.889 222.483 234.257 225.116 235.942 228.506C237.628 231.896 238.471 235.854 238.471 240.381C238.471 244.888 237.628 248.828 235.942 252.199C234.257 255.57 231.889 258.193 228.84 260.068C225.791 261.943 222.221 262.881 218.13 262.881ZM218.158 255.75C220.81 255.75 223.007 255.049 224.749 253.648C226.492 252.246 227.78 250.381 228.613 248.051C229.465 245.722 229.891 243.155 229.891 240.352C229.891 237.568 229.465 235.011 228.613 232.682C227.78 230.333 226.492 228.449 224.749 227.028C223.007 225.608 220.81 224.898 218.158 224.898C215.488 224.898 213.272 225.608 211.511 227.028C209.768 228.449 208.471 230.333 207.619 232.682C206.785 235.011 206.369 237.568 206.369 240.352C206.369 243.155 206.785 245.722 207.619 248.051C208.471 250.381 209.768 252.246 211.511 253.648C213.272 255.049 215.488 255.75 218.158 255.75ZM256.085 262L243.244 218.364H252.022L260.573 250.409H260.999L269.579 218.364H278.357L286.88 250.267H287.306L295.8 218.364H304.579L291.766 262H283.102L274.238 230.494H273.585L264.721 262H256.085ZM321.134 236.091V262H312.64V218.364H320.793V225.466H321.333C322.337 223.155 323.909 221.299 326.049 219.898C328.208 218.496 330.926 217.795 334.202 217.795C337.176 217.795 339.78 218.42 342.015 219.67C344.25 220.902 345.983 222.739 347.214 225.182C348.445 227.625 349.06 230.646 349.06 234.244V262H340.566V235.267C340.566 232.104 339.742 229.633 338.094 227.852C336.447 226.053 334.183 225.153 331.305 225.153C329.335 225.153 327.583 225.58 326.049 226.432C324.534 227.284 323.331 228.534 322.441 230.182C321.57 231.811 321.134 233.78 321.134 236.091Z" fill="white" fill-opacity="0.8"/>
<path d="M151.781 211.375H147.781V215.375H151.781V211.375ZM151.781 203.818V199.818H147.781V203.818H151.781ZM196.809 203.818H200.809V199.818H196.809V203.818ZM196.809 211.375V215.375H200.809V211.375H196.809ZM178.656 211.375V207.375H174.656V211.375H178.656ZM178.656 262V266H182.656V262H178.656ZM169.906 262H165.906V266H169.906V262ZM169.906 211.375H173.906V207.375H169.906V211.375ZM155.781 211.375V203.818H147.781V211.375H155.781ZM151.781 207.818H196.809V199.818H151.781V207.818ZM192.809 203.818V211.375H200.809V203.818H192.809ZM196.809 207.375H178.656V215.375H196.809V207.375ZM174.656 211.375V262H182.656V211.375H174.656ZM178.656 258H169.906V266H178.656V258ZM173.906 262V211.375H165.906V262H173.906ZM169.906 207.375H151.781V215.375H169.906V207.375ZM200.317 252.199L203.895 250.41L203.895 250.41L200.317 252.199ZM207.42 220.608L209.515 224.015L209.515 224.015L207.42 220.608ZM228.84 220.608L226.745 224.015L226.745 224.015L228.84 220.608ZM235.942 252.199L232.365 250.41L232.365 250.41L235.942 252.199ZM228.84 260.068L230.935 263.476L230.935 263.476L228.84 260.068ZM224.749 253.648L222.242 250.531L222.242 250.531L224.749 253.648ZM228.613 248.051L224.856 246.677L224.851 246.69L224.847 246.704L228.613 248.051ZM228.613 232.682L224.843 234.019L224.85 234.038L224.856 234.056L228.613 232.682ZM224.749 227.028L222.222 230.129L222.222 230.129L224.749 227.028ZM211.511 227.028L209 223.915L208.991 223.921L208.983 223.928L211.511 227.028ZM207.619 232.682L203.859 231.317L203.855 231.326L203.852 231.335L207.619 232.682ZM207.619 248.051L203.852 249.398L203.857 249.412L203.862 249.425L207.619 248.051ZM211.511 253.648L209.004 256.765L209.012 256.771L209.02 256.778L211.511 253.648ZM218.13 258.881C214.671 258.881 211.848 258.095 209.515 256.661L205.325 263.476C209.09 265.791 213.407 266.881 218.13 266.881V258.881ZM209.515 256.661C207.135 255.198 205.266 253.151 203.895 250.41L196.74 253.988C198.74 257.989 201.606 261.189 205.325 263.476L209.515 256.661ZM203.895 250.41C202.537 247.693 201.789 244.388 201.789 240.381H193.789C193.789 245.389 194.727 249.962 196.74 253.988L203.895 250.41ZM201.789 240.381C201.789 236.352 202.537 233.025 203.899 230.287L196.736 226.725C194.726 230.766 193.789 235.356 193.789 240.381H201.789ZM203.899 230.287C205.271 227.527 207.141 225.475 209.515 224.015L205.325 217.201C201.6 219.491 198.735 222.704 196.736 226.725L203.899 230.287ZM209.515 224.015C211.848 222.581 214.671 221.795 218.13 221.795V213.795C213.407 213.795 209.09 214.885 205.325 217.201L209.515 224.015ZM218.13 221.795C221.589 221.795 224.412 222.581 226.745 224.015L230.935 217.201C227.17 214.885 222.853 213.795 218.13 213.795V221.795ZM226.745 224.015C229.119 225.475 230.988 227.527 232.361 230.287L239.524 226.725C237.525 222.704 234.66 219.491 230.935 217.201L226.745 224.015ZM232.361 230.287C233.723 233.025 234.471 236.352 234.471 240.381H242.471C242.471 235.356 241.534 230.766 239.524 226.725L232.361 230.287ZM234.471 240.381C234.471 244.388 233.723 247.693 232.365 250.41L239.52 253.988C241.533 249.962 242.471 245.389 242.471 240.381H234.471ZM232.365 250.41C230.994 253.151 229.125 255.198 226.745 256.661L230.935 263.476C234.654 261.189 237.519 257.989 239.52 253.988L232.365 250.41ZM226.745 256.661C224.412 258.095 221.589 258.881 218.13 258.881V266.881C222.853 266.881 227.17 265.791 230.935 263.476L226.745 256.661ZM218.158 259.75C221.545 259.75 224.677 258.839 227.256 256.765L222.242 250.531C221.337 251.259 220.074 251.75 218.158 251.75V259.75ZM227.256 256.765C229.634 254.852 231.325 252.346 232.379 249.398L224.847 246.704C224.235 248.415 223.35 249.64 222.242 250.531L227.256 256.765ZM232.369 249.425C233.402 246.602 233.891 243.564 233.891 240.352H225.891C225.891 242.747 225.528 244.841 224.856 246.677L232.369 249.425ZM233.891 240.352C233.891 237.156 233.401 234.128 232.369 231.307L224.856 234.056C225.529 235.895 225.891 237.98 225.891 240.352H233.891ZM232.383 231.344C231.332 228.383 229.647 225.86 227.277 223.928L222.222 230.129C223.336 231.037 224.227 232.284 224.843 234.019L232.383 231.344ZM227.277 223.928C224.697 221.825 221.558 220.898 218.158 220.898V228.898C220.062 228.898 221.316 229.391 222.222 230.129L227.277 223.928ZM218.158 220.898C214.746 220.898 211.595 221.821 209 223.915L214.022 230.142C214.949 229.394 216.23 228.898 218.158 228.898V220.898ZM208.983 223.928C206.62 225.855 204.929 228.367 203.859 231.317L211.379 234.046C212.013 232.299 212.917 231.043 214.038 230.129L208.983 223.928ZM203.852 231.335C202.846 234.147 202.369 237.166 202.369 240.352H210.369C210.369 237.97 210.724 235.876 211.385 234.029L203.852 231.335ZM202.369 240.352C202.369 243.554 202.845 246.583 203.852 249.398L211.385 246.704C210.725 244.86 210.369 242.756 210.369 240.352H202.369ZM203.862 249.425C204.936 252.362 206.633 254.858 209.004 256.765L214.018 250.531C212.903 249.634 212.005 248.4 211.375 246.677L203.862 249.425ZM209.02 256.778C211.615 258.843 214.759 259.75 218.158 259.75V251.75C216.217 251.75 214.929 251.256 214.001 250.518L209.02 256.778ZM256.085 262L252.247 263.129L253.092 266H256.085V262ZM243.244 218.364V214.364H237.897L239.406 219.493L243.244 218.364ZM252.022 218.364L255.887 217.332L255.095 214.364H252.022V218.364ZM260.573 250.409L256.708 251.44L257.501 254.409H260.573V250.409ZM260.999 250.409V254.409H264.069L264.863 251.444L260.999 250.409ZM269.579 218.364V214.364H266.509L265.715 217.329L269.579 218.364ZM278.357 218.364L282.222 217.331L281.429 214.364H278.357V218.364ZM286.88 250.267L283.015 251.299L283.808 254.267H286.88V250.267ZM287.306 250.267V254.267H290.38L291.171 251.296L287.306 250.267ZM295.8 218.364V214.364H292.726L291.935 217.334L295.8 218.364ZM304.579 218.364L308.417 219.491L309.922 214.364H304.579V218.364ZM291.766 262V266H294.761L295.604 263.127L291.766 262ZM283.102 262L279.251 263.083L280.072 266H283.102V262ZM274.238 230.494L278.088 229.411L277.268 226.494H274.238V230.494ZM273.585 230.494V226.494H270.555L269.734 229.411L273.585 230.494ZM264.721 262V266H267.751L268.571 263.083L264.721 262ZM259.922 260.871L247.081 217.234L239.406 219.493L252.247 263.129L259.922 260.871ZM243.244 222.364H252.022V214.364H243.244V222.364ZM248.157 219.395L256.708 251.44L264.438 249.378L255.887 217.332L248.157 219.395ZM260.573 254.409H260.999V246.409H260.573V254.409ZM264.863 251.444L273.443 219.398L265.715 217.329L257.135 249.375L264.863 251.444ZM269.579 222.364H278.357V214.364H269.579V222.364ZM274.493 219.396L283.015 251.299L290.744 249.235L282.222 217.331L274.493 219.396ZM286.88 254.267H287.306V246.267H286.88V254.267ZM291.171 251.296L299.666 219.393L291.935 217.334L283.441 249.238L291.171 251.296ZM295.8 222.364H304.579V214.364H295.8V222.364ZM300.741 217.237L287.928 260.873L295.604 263.127L308.417 219.491L300.741 217.237ZM291.766 258H283.102V266H291.766V258ZM286.952 260.917L278.088 229.411L270.387 231.578L279.251 263.083L286.952 260.917ZM274.238 226.494H273.585V234.494H274.238V226.494ZM269.734 229.411L260.87 260.917L268.571 263.083L277.435 231.578L269.734 229.411ZM264.721 258H256.085V266H264.721V258ZM321.134 262V266H325.134V262H321.134ZM312.64 262H308.64V266H312.64V262ZM312.64 218.364V214.364H308.64V218.364H312.64ZM320.793 218.364H324.793V214.364H320.793V218.364ZM320.793 225.466H316.793V229.466H320.793V225.466ZM321.333 225.466V229.466H323.957L325.002 227.06L321.333 225.466ZM326.049 219.898L323.871 216.543L323.864 216.547L323.858 216.551L326.049 219.898ZM342.015 219.67L340.062 223.161L340.074 223.168L340.085 223.174L342.015 219.67ZM347.214 225.182L343.642 226.982L343.642 226.982L347.214 225.182ZM349.06 262V266H353.06V262H349.06ZM340.566 262H336.566V266H340.566V262ZM338.094 227.852L335.145 230.554L335.152 230.562L335.159 230.569L338.094 227.852ZM326.049 226.432L324.106 222.935L324.097 222.94L324.088 222.946L326.049 226.432ZM322.441 230.182L318.922 228.281L318.918 228.288L318.914 228.295L322.441 230.182ZM317.134 236.091V262H325.134V236.091H317.134ZM321.134 258H312.64V266H321.134V258ZM316.64 262V218.364H308.64V262H316.64ZM312.64 222.364H320.793V214.364H312.64V222.364ZM316.793 218.364V225.466H324.793V218.364H316.793ZM320.793 229.466H321.333V221.466H320.793V229.466ZM325.002 227.06C325.69 225.477 326.742 224.225 328.24 223.244L323.858 216.551C321.075 218.373 318.984 220.834 317.664 223.872L325.002 227.06ZM328.227 223.253C329.582 222.373 331.489 221.795 334.202 221.795V213.795C330.362 213.795 326.834 214.619 323.871 216.543L328.227 223.253ZM334.202 221.795C336.603 221.795 338.514 222.296 340.062 223.161L343.968 216.179C341.046 214.545 337.748 213.795 334.202 213.795V221.795ZM340.085 223.174C341.561 223.987 342.746 225.204 343.642 226.982L350.786 223.382C349.219 220.273 346.938 217.816 343.945 216.167L340.085 223.174ZM343.642 226.982C344.517 228.719 345.06 231.082 345.06 234.244H353.06C353.06 230.21 352.373 226.531 350.786 223.382L343.642 226.982ZM345.06 234.244V262H353.06V234.244H345.06ZM349.06 258H340.566V266H349.06V258ZM344.566 262V235.267H336.566V262H344.566ZM344.566 235.267C344.566 231.412 343.55 227.858 341.03 225.135L335.159 230.569C335.935 231.408 336.566 232.797 336.566 235.267H344.566ZM341.044 225.151C338.502 222.375 335.085 221.153 331.305 221.153V229.153C333.282 229.153 334.392 229.732 335.145 230.554L341.044 225.151ZM331.305 221.153C328.74 221.153 326.305 221.714 324.106 222.935L327.992 229.928C328.862 229.445 329.93 229.153 331.305 229.153V221.153ZM324.088 222.946C321.863 224.197 320.142 226.021 318.922 228.281L325.96 232.083C326.52 231.047 327.205 230.371 328.01 229.918L324.088 222.946ZM318.914 228.295C317.664 230.632 317.134 233.284 317.134 236.091H325.134C325.134 234.276 325.476 232.989 325.968 232.068L318.914 228.295Z" fill="black" fill-opacity="0.2"/>
</g>
</g>
<defs>
<filter id="filter0_d_2_43" x="36.8399" y="12.3231" width="421.101" height="461.179" filterUnits="userSpaceOnUse" color-interpolation-filters="sRGB">
<feFlood flood-opacity="0" result="BackgroundImageFix"/>
<feColorMatrix in="SourceAlpha" type="matrix" values="0 0 0 0 0 0 0 0 0 0 0 0 0 0 0 0 0 0 127 0" result="hardAlpha"/>
<feOffset dy="4"/>
<feGaussianBlur stdDeviation="2"/>
<feComposite in2="hardAlpha" operator="out"/>
<feColorMatrix type="matrix" values="0 0 0 0 0 0 0 0 0 0 0 0 0 0 0 0 0 0 0.25 0"/>
<feBlend mode="normal" in2="BackgroundImageFix" result="effect1_dropShadow_2_43"/>
<feBlend mode="normal" in="SourceGraphic" in2="effect1_dropShadow_2_43" result="shape"/>
</filter>
<linearGradient id="paint0_linear_2_43" x1="260.651" y1="424.675" x2="260.394" y2="381.701" gradientUnits="userSpaceOnUse">
<stop stop-color="white"/>
<stop offset="1" stop-color="#BABDB6"/>
</linearGradient>
<linearGradient id="paint1_linear_2_43" x1="73.4398" y1="229.378" x2="154.904" y2="229.378" gradientUnits="userSpaceOnUse">
<stop stop-color="#CF7272"/>
<stop offset="1" stop-color="#E14646"/>
</linearGradient>
<linearGradient id="paint2_linear_2_43" x1="92.8383" y1="192.65" x2="108.593" y2="193.215" gradientUnits="userSpaceOnUse">
<stop stop-opacity="0.0686275"/>
<stop offset="1" stop-color="white"/>
</linearGradient>
<linearGradient id="paint3_linear_2_43" x1="802.469" y1="256.502" x2="-34.7589" y2="193.096" gradientUnits="userSpaceOnUse">
<stop stop-color="#FF2E2E"/>
<stop offset="1" stop-color="white" stop-opacity="0"/>
</linearGradient>
<clipPath id="clip0_2_43">
<rect width="500" height="500" fill="white"/>
</clipPath>
<clipPath id="clip1_2_43">
<rect width="448" height="524" fill="white" transform="translate(26)"/>
</clipPath>
</defs>
</svg>
